<svg id="Layer_1" data-name="Layer 1" xmlns="http://www.w3.org/2000/svg" viewBox="0 0 1000 1000"><defs><style>.cls-1{fill:#5b80aa;}</style></defs><path class="cls-1" d="M478.84,657l-3.51-5.2H474V657h-2.52V642.7h5.59a4.55,4.55,0,0,1,1,9l3.7,5.28ZM474,645v4.68h2.55a2.2,2.2,0,0,0,2.52-2.32,2.17,2.17,0,0,0-2.19-2.36Z"/><path class="cls-1" d="M495.73,654.7h6.46V657h-9V642.7H502V645h-6.25v3.85h5.47v2.3h-5.47Z"/><path class="cls-1" d="M522.62,657l-1.24-3.5h-5.61l-1.22,3.5h-2.69l5.36-14.26H520L525.29,657Zm-6.08-5.69h4.07l-2-5.8Z"/><path class="cls-1" d="M538.27,654.7h5.54V657h-8.07V642.7h2.53Z"/><path class="cls-1" d="M570.35,654.7h6.46V657h-9V642.7h8.75V645h-6.25v3.85h5.46v2.3h-5.46Z"/><path class="cls-1" d="M587.53,652.84H590a2.42,2.42,0,0,0,2.65,2.13,2.13,2.13,0,0,0,2.38-2c0-1-.85-1.57-2-1.9l-1.78-.5c-3.06-.78-3.6-2.63-3.6-3.87,0-2.52,2.22-4.24,4.85-4.24s4.65,1.61,4.65,4.28h-2.5a2,2,0,0,0-2.22-2,2.08,2.08,0,0,0-2.23,1.94c0,.39.12,1.22,1.76,1.66l1.7.49c2.23.62,4,1.78,4,4.06,0,2.61-2.17,4.35-5,4.35C589.58,657.21,587.53,655.26,587.53,652.84Z"/><path class="cls-1" d="M618,642.7V645H613.9v12h-2.53V645H607.3V642.7Z"/><path class="cls-1" d="M636.6,657l-1.24-3.5h-5.61l-1.22,3.5h-2.69l5.36-14.26h2.73L639.27,657Zm-6.08-5.69h4.08l-2-5.8Z"/><path class="cls-1" d="M657.82,642.7V645h-4.08v12h-2.52V645h-4.08V642.7Z"/><path class="cls-1" d="M671.25,654.7h6.46V657h-9V642.7h8.75V645h-6.25v3.85h5.47v2.3h-5.47Z"/><path class="cls-1" d="M702.09,649.84a7.34,7.34,0,0,1,7.25-7.39,7.15,7.15,0,0,1,5.67,2.77l-1.91,1.45a4.56,4.56,0,0,0-3.7-1.86,4.88,4.88,0,0,0-4.76,5,4.83,4.83,0,0,0,4.76,5,4.57,4.57,0,0,0,3.7-1.87l1.91,1.45a7.13,7.13,0,0,1-5.67,2.78A7.33,7.33,0,0,1,702.09,649.84Z"/><path class="cls-1" d="M725,649.84a7.25,7.25,0,1,1,7.25,7.37A7.3,7.3,0,0,1,725,649.84Zm12,0a4.72,4.72,0,1,0-9.42,0,4.72,4.72,0,1,0,9.42,0Z"/><path class="cls-1" d="M767.17,654.7h5.54V657h-8.07V642.7h2.53Z"/><path class="cls-1" d="M791.22,642.7V645h-4.08v12h-2.53V645h-4.07V642.7Z"/><path class="cls-1" d="M807.73,642.7c4.08,0,6.46,3.1,6.46,7.16s-2.38,7.1-6.46,7.1h-5.59V642.7Zm0,12c2.59,0,3.91-2.19,3.91-4.84s-1.32-4.91-3.91-4.91h-3.06v9.75Z"/><path class="cls-1" d="M263.34,610.68l-77.53-.16V384.84l77.52-42,77.52,42V610.52Zm-68.56-9.12,68.56.14,68.54-.14V390.18L263.33,353l-68.55,37.18Z"/><path class="cls-1" d="M340.85,610.84l-82-.17v-141l82-44.48Zm-73-9.13,64.06.14V440.27L267.82,475Z"/><path class="cls-1" d="M331.88,610.84V425.2l82,44.48v141Zm9-170.57V601.85l64.06-.14V475Z"/><rect class="cls-1" x="258.84" y="347.9" width="8.97" height="129.15"/><polygon class="cls-1" points="203.34 399.88 223.93 388.68 223.93 422.26 203.34 433.46 203.34 399.88"/><polygon class="cls-1" points="229.31 385.83 249.9 374.63 249.9 408.21 229.31 419.41 229.31 385.83"/><polygon class="cls-1" points="203.34 441.88 223.93 430.68 223.93 464.27 203.34 475.47 203.34 441.88"/><polygon class="cls-1" points="229.31 427.83 249.9 416.63 249.9 450.22 229.31 461.42 229.31 427.83"/><polygon class="cls-1" points="276.57 486.07 297.16 474.87 297.16 508.46 276.57 519.66 276.57 486.07"/><polygon class="cls-1" points="302.53 472.03 323.12 460.83 323.12 494.41 302.53 505.61 302.53 472.03"/><polygon class="cls-1" points="276.57 540.42 297.16 529.25 297.16 606.33 276.57 606.2 276.57 540.42"/><polygon class="cls-1" points="323.12 515.17 323.12 606.48 302.53 606.48 302.53 526.34 323.12 515.17"/><polygon class="cls-1" points="203.34 497.2 223.93 486.03 223.93 606.31 203.34 606.19 203.34 497.2"/><polygon class="cls-1" points="249.9 471.95 249.9 606.46 229.31 606.46 229.31 483.12 249.9 471.95"/><path class="cls-1" d="M470.86,610.84v-93.3h45.35q14.44,0,21.89,6t7.45,17.57a21.12,21.12,0,0,1-3.63,12.55q-3.63,5.11-11,8,8.83,1.71,13.47,7.38t4.64,14.7q0,13.88-8,20.5t-24.88,6.63Zm9.46-53.24h33.05q12.32,0,17.45-3.66T536,541.82q0-8.33-5.05-12t-16.65-3.69H480.32Zm0,44H515.2q12.75,0,18.46-4t5.7-12.94q0-9.71-5.29-14.16T517.22,566h-36.9Z"/><path class="cls-1" d="M563.63,610.84v-93.3h71.72v8.7H573v32.68h57.6v8.77H573v34.38h62.39v8.77Z"/><path class="cls-1" d="M680.67,610.84V526.12h-36v-8.58H726v8.58H690v84.72Z"/><path class="cls-1" d="M717.26,610.84l43-93.3H771l42.52,93.3h-9.4L791.07,582H740l-13.18,28.83ZM744.13,573h42.78L765.58,525.3Z"/><rect class="cls-1" x="185.81" y="642.7" width="228.07" height="9.12"/></svg>